<mxfile host="65bd71144e">
    <diagram id="jzO4Z7So-wotEjKWlKY6" name="Page-1">
        <mxGraphModel dx="1208" dy="807" grid="1" gridSize="10" guides="1" tooltips="1" connect="1" arrows="1" fold="1" page="1" pageScale="1" pageWidth="850" pageHeight="1100" math="0" shadow="0">
            <root>
                <mxCell id="0"/>
                <mxCell id="1" parent="0"/>
                <mxCell id="2" value="Header" style="rounded=0;whiteSpace=wrap;html=1;" vertex="1" parent="1">
                    <mxGeometry x="80" y="120" width="680" height="40" as="geometry"/>
                </mxCell>
                <mxCell id="3" value="H1" style="rounded=1;whiteSpace=wrap;html=1;" vertex="1" parent="1">
                    <mxGeometry x="280" y="190" width="260" height="30" as="geometry"/>
                </mxCell>
                <mxCell id="4" value="P" style="shape=parallelogram;perimeter=parallelogramPerimeter;whiteSpace=wrap;html=1;fixedSize=1;" vertex="1" parent="1">
                    <mxGeometry x="200" y="250" width="410" height="120" as="geometry"/>
                </mxCell>
                <mxCell id="5" value="H1" style="rounded=1;whiteSpace=wrap;html=1;" vertex="1" parent="1">
                    <mxGeometry x="280" y="400" width="260" height="30" as="geometry"/>
                </mxCell>
                <mxCell id="6" value="list" style="shape=parallelogram;perimeter=parallelogramPerimeter;whiteSpace=wrap;html=1;fixedSize=1;" vertex="1" parent="1">
                    <mxGeometry x="80" y="480" width="120" height="60" as="geometry"/>
                </mxCell>
                <mxCell id="7" value="&lt;span&gt;list&lt;/span&gt;" style="shape=parallelogram;perimeter=parallelogramPerimeter;whiteSpace=wrap;html=1;fixedSize=1;" vertex="1" parent="1">
                    <mxGeometry x="360" y="480" width="120" height="60" as="geometry"/>
                </mxCell>
                <mxCell id="8" value="&lt;span&gt;list&lt;/span&gt;" style="shape=parallelogram;perimeter=parallelogramPerimeter;whiteSpace=wrap;html=1;fixedSize=1;" vertex="1" parent="1">
                    <mxGeometry x="640" y="480" width="120" height="60" as="geometry"/>
                </mxCell>
                <mxCell id="9" value="H1" style="rounded=1;whiteSpace=wrap;html=1;" vertex="1" parent="1">
                    <mxGeometry x="260" y="590" width="300" height="30" as="geometry"/>
                </mxCell>
                <mxCell id="10" value="Table" style="swimlane;" vertex="1" parent="1">
                    <mxGeometry x="130" y="650" width="550" height="230" as="geometry"/>
                </mxCell>
                <mxCell id="12" value="Table" style="swimlane;" vertex="1" parent="1">
                    <mxGeometry x="190" y="990" width="450" height="220" as="geometry"/>
                </mxCell>
                <mxCell id="11" value="H1" style="rounded=1;whiteSpace=wrap;html=1;" vertex="1" parent="1">
                    <mxGeometry x="190" y="920" width="450" height="30" as="geometry"/>
                </mxCell>
                <mxCell id="13" value="Footer" style="rounded=0;whiteSpace=wrap;html=1;" vertex="1" parent="1">
                    <mxGeometry x="80" y="1240" width="680" height="40" as="geometry"/>
                </mxCell>
            </root>
        </mxGraphModel>
    </diagram>
</mxfile>